<svg xmlns="http://www.w3.org/2000/svg" data-name="Layer 1" viewBox="0 0 256 256"><path fill="#f7e9d0" d="M195.38,171.14H60.62a9,9,0,0,1-9-9A76.47,76.47,0,0,1,128,85.76a9,9,0,0,1,9,9,24.72,24.72,0,0,0,24.69,24.69,42.74,42.74,0,0,1,42.69,42.69A9,9,0,0,1,195.38,171.14Z"/><path fill="#e7d1b0" d="M92,171.14a9,9,0,0,1-9-9,44.64,44.64,0,0,1,13.16-31.77,9,9,0,1,1,12.73,12.73,26.76,26.76,0,0,0-7.89,19A9,9,0,0,1,92,171.14Z"/><path fill="#ffc219" d="M204.37,220.55H190.89a9,9,0,0,1,0-18h13.48a27,27,0,0,0,26.94-26.94,4.48,4.48,0,0,0-4.48-4.48A19.46,19.46,0,0,0,213,176.88a9,9,0,0,1-12.73-12.73,37.34,37.34,0,0,1,26.58-11,22.5,22.5,0,0,1,22.48,22.48A45,45,0,0,1,204.37,220.55Z"/><path fill="#ffce47" d="M215.61,162.14a9,9,0,0,0-9-9H49.39a9,9,0,0,0-9,9,87.67,87.67,0,0,0,44.86,76.45,9,9,0,0,0,8.61,11.61h67.38A9,9,0,0,0,170,239,87.68,87.68,0,0,0,215.61,162.14Z"/><path fill="#f2f2f2" d="M159.45 106a9 9 0 0 1-9-9 22.5 22.5 0 0 1 22.48-22.48 9 9 0 0 1 0 18A4.48 4.48 0 0 0 168.45 97 9 9 0 0 1 159.45 106zM160.54 38.62a9 9 0 0 1 0-18A4.48 4.48 0 0 0 165 16.14a9 9 0 0 1 18 0A22.5 22.5 0 0 1 160.54 38.62z"/><path fill="#f2f2f2" d="M208.86,93H195.38a9,9,0,0,1,0-18h13.48a4.48,4.48,0,0,0,0-9H62.7a22.48,22.48,0,0,1,0-45h66.39a4.48,4.48,0,0,0,4.48-4.48,9,9,0,0,1,18,0,22.5,22.5,0,0,1-22.48,22.48H62.86a4.48,4.48,0,0,0,0,9h146a22.48,22.48,0,0,1,0,45Z"/></svg>