<svg xmlns="http://www.w3.org/2000/svg" enable-background="new 0 0 64 64" viewBox="0 0 64 64"><path fill="#1c243a" d="M22.95,23.2c0,4.99,4.06,9.05,9.05,9.05c4.99,0,9.05-4.06,9.05-9.05c0-4.99-4.06-9.05-9.05-9.05
		C27.01,14.15,22.95,18.21,22.95,23.2z M29.48,26.37c0.03,0.01,0.07,0.03,0.15,0.08c0.13,0.06,0.3,0.14,0.49,0.22
		c0.19,0.09,0.43,0.16,0.71,0.24c0.3,0.07,0.61,0.11,0.93,0.11c0.27,0,0.54-0.04,0.81-0.11c0.23-0.08,0.43-0.18,0.61-0.31
		c0.17-0.15,0.3-0.32,0.38-0.51c0.09-0.21,0.13-0.42,0.13-0.65c0-0.27-0.05-0.5-0.16-0.71c-0.11-0.23-0.27-0.41-0.46-0.53
		c-0.2-0.15-0.44-0.26-0.73-0.34c-0.28-0.07-0.6-0.11-1-0.11l-0.95-0.02c-0.01-0.03-0.03-0.07-0.04-0.18
		c-0.02-0.08-0.02-0.19-0.02-0.35c0-0.13,0-0.24,0.02-0.34c0.01-0.08,0.02-0.13,0.11-0.17h0.86c0.28,0,0.57-0.04,0.84-0.11
		c0.27-0.08,0.48-0.19,0.64-0.33c0.18-0.15,0.32-0.33,0.42-0.53c0.09-0.2,0.14-0.43,0.14-0.68c0-0.2-0.04-0.39-0.1-0.54
		c-0.06-0.18-0.16-0.33-0.29-0.46c-0.12-0.13-0.29-0.24-0.5-0.31c-0.22-0.08-0.44-0.11-0.67-0.11c-0.29,0-0.56,0.04-0.82,0.13
		c-0.25,0.09-0.46,0.17-0.65,0.27c-0.19,0.1-0.35,0.19-0.49,0.28c-0.12,0.08-0.17,0.09-0.17,0.09c0,0,0,0,0,0
		c-0.02-0.04-0.03-0.13-0.03-0.17c-0.01-0.09-0.02-0.2-0.02-0.35l0.01-0.29c0.01-0.08,0.02-0.14,0.02-0.17l0.05-0.11
		c0.01-0.02,0.02-0.04,0.06-0.08c0.02-0.02,0.09-0.08,0.29-0.19c0.13-0.09,0.32-0.18,0.56-0.27c0.21-0.08,0.46-0.15,0.79-0.22
		c0.29-0.07,0.61-0.1,0.97-0.1c0.44,0,0.85,0.06,1.21,0.17c0.36,0.11,0.63,0.25,0.85,0.45c0.21,0.17,0.38,0.4,0.51,0.68
		c0.12,0.3,0.18,0.63,0.18,0.97c0,0.27-0.04,0.53-0.1,0.77c-0.07,0.23-0.17,0.44-0.31,0.64c-0.12,0.17-0.28,0.32-0.5,0.46
		c-0.18,0.12-0.42,0.22-0.7,0.29l-0.16,0.07v0.34l0.18,0.02c0.33,0.04,0.61,0.12,0.86,0.24c0.24,0.11,0.45,0.27,0.64,0.47
		c0.17,0.17,0.3,0.37,0.4,0.62c0.09,0.24,0.14,0.48,0.14,0.74c0,0.45-0.09,0.86-0.27,1.22c-0.17,0.34-0.41,0.64-0.72,0.88
		c-0.33,0.25-0.72,0.44-1.14,0.56c-0.43,0.12-0.92,0.19-1.47,0.19c-0.34,0-0.64-0.02-0.91-0.07c-0.28-0.04-0.53-0.1-0.75-0.17
		c-0.23-0.07-0.39-0.14-0.52-0.21c-0.19-0.1-0.23-0.13-0.23-0.14l-0.07-0.09c-0.02-0.03-0.03-0.07-0.04-0.15
		c-0.02-0.04-0.02-0.14-0.03-0.21c-0.01-0.1-0.01-0.21-0.01-0.35C29.43,26.53,29.45,26.43,29.48,26.37z"/><path fill="#1c243a" d="M31.18 33.85l-.19-.02c-5.11-.48-9.16-4.53-9.63-9.63l-.02-.19H0v18.3h31.18V33.85zM21.36 22.19c.47-5.11 4.52-9.16 9.63-9.63l.19-.02V4.07H0v18.31h21.35L21.36 22.19zM32.82 4.07v8.47l.19.02c5.1.47 9.15 4.52 9.63 9.63l.02.19H64V4.07H32.82zM42.64 24.21c-.48 5.1-4.53 9.15-9.63 9.63l-.19.02v8.46H64v-18.3H42.65L42.64 24.21zM8.64 47.24c-4.35 0-7.9 3.55-7.9 7.91v4.78h15.81v-4.78C16.54 50.79 13 47.24 8.64 47.24zM32 47.24c-4.35 0-7.9 3.55-7.9 7.91v4.78h15.8v-4.78C39.9 50.79 36.35 47.24 32 47.24zM55.35 47.24c-4.35 0-7.9 3.55-7.9 7.91v4.78h15.8v-4.78C63.25 50.79 59.71 47.24 55.35 47.24z"/></svg>