<?xml version="1.0" encoding="UTF-8"?>
<!DOCTYPE svg PUBLIC "-//W3C//DTD SVG 1.1//EN" "http://www.w3.org/Graphics/SVG/1.1/DTD/svg11.dtd">
<svg xmlns="http://www.w3.org/2000/svg" version="1.1" width="1920px" height="500px" style="shape-rendering:geometricPrecision; text-rendering:geometricPrecision; image-rendering:optimizeQuality; fill-rule:evenodd; clip-rule:evenodd" xmlns:xlink="http://www.w3.org/1999/xlink">
<g><path style="opacity:0.976" fill="#060504" d="M -0.5,-0.5 C 639.5,-0.5 1279.5,-0.5 1919.5,-0.5C 1919.5,47.1667 1919.5,94.8333 1919.5,142.5C 1873.16,142.63 1826.83,142.963 1780.5,143.5C 1780.5,167.5 1780.5,191.5 1780.5,215.5C 1826.83,215.213 1873.17,214.88 1919.5,214.5C 1919.5,263.833 1919.5,313.167 1919.5,362.5C 1897.83,362.5 1876.17,362.5 1854.5,362.5C 1853.86,408.246 1853.86,453.912 1854.5,499.5C 1826.83,499.5 1799.17,499.5 1771.5,499.5C 1771.5,464.167 1771.5,428.833 1771.5,393.5C 1748.5,393.5 1725.5,393.5 1702.5,393.5C 1702.5,369.833 1702.5,346.167 1702.5,322.5C 1678.5,322.5 1654.5,322.5 1630.5,322.5C 1630.5,337.833 1630.5,353.167 1630.5,368.5C 1611.17,368.5 1591.83,368.5 1572.5,368.5C 1572.5,392.5 1572.5,416.5 1572.5,440.5C 1591.83,440.5 1611.17,440.5 1630.5,440.5C 1630.5,448.5 1630.5,456.5 1630.5,464.5C 1653.5,464.5 1676.5,464.5 1699.5,464.5C 1699.5,476.167 1699.5,487.833 1699.5,499.5C 1655.83,499.5 1612.17,499.5 1568.5,499.5C 1568.5,486.167 1568.5,472.833 1568.5,459.5C 1544.83,459.5 1521.17,459.5 1497.5,459.5C 1497.5,472.833 1497.5,486.167 1497.5,499.5C 1453.17,499.5 1408.83,499.5 1364.5,499.5C 1364.23,460.166 1363.9,420.833 1363.5,381.5C 1339.5,381.5 1315.5,381.5 1291.5,381.5C 1291.18,411.988 1291.68,442.321 1293,472.5C 1274.58,473.493 1256.08,473.826 1237.5,473.5C 1237.5,457.833 1237.5,442.167 1237.5,426.5C 1213.5,426.5 1189.5,426.5 1165.5,426.5C 1164.86,451.062 1165.52,475.395 1167.5,499.5C 1144.83,499.5 1122.17,499.5 1099.5,499.5C 1099.5,483.833 1099.5,468.167 1099.5,452.5C 1083.5,452.5 1067.5,452.5 1051.5,452.5C 1050.24,419.848 1049.57,387.182 1049.5,354.5C 1025.83,354.5 1002.17,354.5 978.5,354.5C 978.5,378.167 978.5,401.833 978.5,425.5C 977.5,425.5 976.5,425.5 975.5,425.5C 975.5,426.833 975.5,428.167 975.5,429.5C 951.5,429.5 927.5,429.5 903.5,429.5C 903.817,438.085 903.483,446.585 902.5,455C 890.838,455.5 879.171,455.667 867.5,455.5C 867.5,470.167 867.5,484.833 867.5,499.5C 859.167,499.5 850.833,499.5 842.5,499.5C 842.5,485.833 842.5,472.167 842.5,458.5C 836.575,458.808 830.741,458.475 825,457.5C 824.333,438.5 824.333,419.5 825,400.5C 837.754,399.511 850.587,399.178 863.5,399.5C 863.5,375.833 863.5,352.167 863.5,328.5C 839.833,328.5 816.167,328.5 792.5,328.5C 792.5,351.167 792.5,373.833 792.5,396.5C 779.5,396.5 766.5,396.5 753.5,396.5C 753.5,420.5 753.5,444.5 753.5,468.5C 759.425,468.192 765.259,468.525 771,469.5C 771.5,479.494 771.666,489.494 771.5,499.5C 748.833,499.5 726.167,499.5 703.5,499.5C 703.5,479.833 703.5,460.167 703.5,440.5C 679.5,440.5 655.5,440.5 631.5,440.5C 631.5,460.167 631.5,479.833 631.5,499.5C 588.833,499.5 546.167,499.5 503.5,499.5C 504.244,457.183 504.244,414.85 503.5,372.5C 479.833,372.5 456.167,372.5 432.5,372.5C 431.764,414.848 431.764,457.182 432.5,499.5C 411.833,499.5 391.167,499.5 370.5,499.5C 370.5,450.833 370.5,402.167 370.5,353.5C 346.5,353.5 322.5,353.5 298.5,353.5C 298.5,402.167 298.5,450.833 298.5,499.5C 271.5,499.5 244.5,499.5 217.5,499.5C 217.5,476.167 217.5,452.833 217.5,429.5C 192.158,429.655 166.824,429.322 141.5,428.5C 140.885,404.838 140.552,381.172 140.5,357.5C 116.5,357.5 92.5,357.5 68.5,357.5C 68.5,334.833 68.5,312.167 68.5,289.5C 59.5822,289.817 50.7489,289.484 42,288.5C 41.5,268.169 41.3334,247.836 41.5,227.5C 31.1667,227.5 20.8333,227.5 10.5,227.5C 10.5,209.167 10.5,190.833 10.5,172.5C 6.83333,172.5 3.16667,172.5 -0.5,172.5C -0.5,114.833 -0.5,57.1667 -0.5,-0.5 Z M 661.5,80.5 C 674.833,80.5 688.167,80.5 701.5,80.5C 701.5,104.5 701.5,128.5 701.5,152.5C 688.167,152.5 674.833,152.5 661.5,152.5C 651.167,152.5 640.833,152.5 630.5,152.5C 630.5,128.5 630.5,104.5 630.5,80.5C 640.833,80.5 651.167,80.5 661.5,80.5 Z M 753.5,80.5 C 764.167,80.5 774.833,80.5 785.5,80.5C 785.5,104.5 785.5,128.5 785.5,152.5C 774.833,152.5 764.167,152.5 753.5,152.5C 740.5,152.5 727.5,152.5 714.5,152.5C 714.5,128.5 714.5,104.5 714.5,80.5C 727.5,80.5 740.5,80.5 753.5,80.5 Z M 57.5,97.5 C 81.1667,97.5 104.833,97.5 128.5,97.5C 128.5,121.5 128.5,145.5 128.5,169.5C 104.833,169.5 81.1667,169.5 57.5,169.5C 57.5,145.5 57.5,121.5 57.5,97.5 Z M 1354.5,154.5 C 1378.5,154.5 1402.5,154.5 1426.5,154.5C 1426.5,219.833 1426.5,285.167 1426.5,350.5C 1402.5,350.5 1378.5,350.5 1354.5,350.5C 1354.5,285.167 1354.5,219.833 1354.5,154.5 Z M 420.5,155.5 C 444.167,155.5 467.833,155.5 491.5,155.5C 491.5,179.5 491.5,203.5 491.5,227.5C 475.167,227.5 458.833,227.5 442.5,227.5C 442.5,233.5 442.5,239.5 442.5,245.5C 458.833,245.5 475.167,245.5 491.5,245.5C 491.5,269.5 491.5,293.5 491.5,317.5C 467.833,317.5 444.167,317.5 420.5,317.5C 420.5,303.167 420.5,288.833 420.5,274.5C 413.833,274.5 407.167,274.5 400.5,274.5C 400.5,288.5 400.5,302.5 400.5,316.5C 376.5,316.5 352.5,316.5 328.5,316.5C 328.5,292.5 328.5,268.5 328.5,244.5C 342.5,244.5 356.5,244.5 370.5,244.5C 370.5,230.5 370.5,216.5 370.5,202.5C 386.837,202.667 403.17,202.5 419.5,202C 420.491,186.578 420.824,171.078 420.5,155.5 Z M 631.5,164.5 C 655.5,164.5 679.5,164.5 703.5,164.5C 703.5,188.5 703.5,212.5 703.5,236.5C 679.5,236.5 655.5,236.5 631.5,236.5C 631.5,212.5 631.5,188.5 631.5,164.5 Z M 798.5,164.5 C 822.167,164.5 845.833,164.5 869.5,164.5C 869.5,188.5 869.5,212.5 869.5,236.5C 845.833,236.5 822.167,236.5 798.5,236.5C 798.5,212.5 798.5,188.5 798.5,164.5 Z M 142.5,181.5 C 166.5,181.5 190.5,181.5 214.5,181.5C 214.5,205.5 214.5,229.5 214.5,253.5C 190.5,253.5 166.5,253.5 142.5,253.5C 142.5,229.5 142.5,205.5 142.5,181.5 Z M 1263.5,191.5 C 1287.17,191.5 1310.83,191.5 1334.5,191.5C 1334.5,215.5 1334.5,239.5 1334.5,263.5C 1310.83,263.5 1287.17,263.5 1263.5,263.5C 1263.5,239.5 1263.5,215.5 1263.5,191.5 Z M 508.5,205.5 C 532.5,205.5 556.5,205.5 580.5,205.5C 580.5,229.5 580.5,253.5 580.5,277.5C 556.5,277.5 532.5,277.5 508.5,277.5C 508.5,253.5 508.5,229.5 508.5,205.5 Z M 1705.5,215.5 C 1729.5,215.5 1753.5,215.5 1777.5,215.5C 1777.5,239.5 1777.5,263.5 1777.5,287.5C 1753.5,287.5 1729.5,287.5 1705.5,287.5C 1705.5,263.5 1705.5,239.5 1705.5,215.5 Z M 1573.5,224.5 C 1597.5,224.5 1621.5,224.5 1645.5,224.5C 1645.5,248.5 1645.5,272.5 1645.5,296.5C 1621.5,296.5 1597.5,296.5 1573.5,296.5C 1573.5,272.5 1573.5,248.5 1573.5,224.5 Z M 972.5,250.5 C 996.167,250.5 1019.83,250.5 1043.5,250.5C 1043.5,274.5 1043.5,298.5 1043.5,322.5C 1019.83,322.5 996.167,322.5 972.5,322.5C 972.5,298.5 972.5,274.5 972.5,250.5 Z M 1062.5,250.5 C 1086.17,250.5 1109.83,250.5 1133.5,250.5C 1133.5,274.5 1133.5,298.5 1133.5,322.5C 1109.83,322.5 1086.17,322.5 1062.5,322.5C 1062.5,298.5 1062.5,274.5 1062.5,250.5 Z M 885.5,251.5 C 909.167,251.5 932.833,251.5 956.5,251.5C 956.5,275.5 956.5,299.5 956.5,323.5C 932.833,323.5 909.167,323.5 885.5,323.5C 885.5,299.5 885.5,275.5 885.5,251.5 Z M 598.5,253.5 C 622.5,253.5 646.5,253.5 670.5,253.5C 670.5,277.5 670.5,301.5 670.5,325.5C 646.5,325.5 622.5,325.5 598.5,325.5C 598.5,301.5 598.5,277.5 598.5,253.5 Z M 141.5,268.5 C 165.167,268.5 188.833,268.5 212.5,268.5C 212.194,272.747 212.861,276.747 214.5,280.5C 241.485,280.017 268.485,280.017 295.5,280.5C 295.5,304.167 295.5,327.833 295.5,351.5C 282.92,351.178 270.42,351.511 258,352.5C 257.5,366.829 257.333,381.163 257.5,395.5C 233.833,395.5 210.167,395.5 186.5,395.5C 186.5,381.5 186.5,367.5 186.5,353.5C 172.5,353.5 158.5,353.5 144.5,353.5C 143.102,349.367 142.269,345.034 142,340.5C 141.5,316.502 141.333,292.502 141.5,268.5 Z M 1221.5,280.5 C 1245.17,280.5 1268.83,280.5 1292.5,280.5C 1292.5,304.167 1292.5,327.833 1292.5,351.5C 1282.25,351.181 1272.08,351.514 1262,352.5C 1261.5,367.163 1261.33,381.83 1261.5,396.5C 1237.5,396.5 1213.5,396.5 1189.5,396.5C 1189.5,372.833 1189.5,349.167 1189.5,325.5C 1200.08,325.82 1210.58,325.487 1221,324.5C 1221.5,309.837 1221.67,295.17 1221.5,280.5 Z M 1780.5,287.5 C 1804.5,287.5 1828.5,287.5 1852.5,287.5C 1852.5,311.5 1852.5,335.5 1852.5,359.5C 1828.5,359.5 1804.5,359.5 1780.5,359.5C 1780.5,335.5 1780.5,311.5 1780.5,287.5 Z M 1485.5,292.5 C 1509.17,292.5 1532.83,292.5 1556.5,292.5C 1556.5,316.167 1556.5,339.833 1556.5,363.5C 1532.83,363.5 1509.17,363.5 1485.5,363.5C 1485.5,339.833 1485.5,316.167 1485.5,292.5 Z M 508.5,296.5 C 532.5,296.5 556.5,296.5 580.5,296.5C 580.5,320.5 580.5,344.5 580.5,368.5C 556.5,368.5 532.5,368.5 508.5,368.5C 508.5,344.5 508.5,320.5 508.5,296.5 Z M 661.5,342.5 C 685.5,342.5 709.5,342.5 733.5,342.5C 733.5,366.5 733.5,390.5 733.5,414.5C 709.5,414.5 685.5,414.5 661.5,414.5C 661.5,390.5 661.5,366.5 661.5,342.5 Z M 1090.5,351.5 C 1114.5,351.5 1138.5,351.5 1162.5,351.5C 1162.5,375.5 1162.5,399.5 1162.5,423.5C 1138.5,423.5 1114.5,423.5 1090.5,423.5C 1090.5,399.5 1090.5,375.5 1090.5,351.5 Z M 558.5,369.5 C 582.167,369.5 605.833,369.5 629.5,369.5C 629.5,393.5 629.5,417.5 629.5,441.5C 621.167,441.5 612.833,441.5 604.5,441.5C 604.5,451.167 604.5,460.833 604.5,470.5C 580.5,470.5 556.5,470.5 532.5,470.5C 532.5,446.5 532.5,422.5 532.5,398.5C 541.167,398.5 549.833,398.5 558.5,398.5C 558.5,388.833 558.5,379.167 558.5,369.5 Z M 1395.5,390.5 C 1419.17,390.5 1442.83,390.5 1466.5,390.5C 1466.5,414.5 1466.5,438.5 1466.5,462.5C 1442.83,462.5 1419.17,462.5 1395.5,462.5C 1395.5,438.5 1395.5,414.5 1395.5,390.5 Z"/></g>
<g><path style="opacity:0.867" fill="#000000" d="M 753.5,80.5 C 740.5,80.5 727.5,80.5 714.5,80.5C 714.5,104.5 714.5,128.5 714.5,152.5C 727.5,152.5 740.5,152.5 753.5,152.5C 753.67,153.822 753.337,154.989 752.5,156C 722.168,156.5 691.835,156.667 661.5,156.5C 661.5,155.167 661.5,153.833 661.5,152.5C 674.833,152.5 688.167,152.5 701.5,152.5C 701.5,128.5 701.5,104.5 701.5,80.5C 688.167,80.5 674.833,80.5 661.5,80.5C 661.5,75.1667 661.5,69.8333 661.5,64.5C 692.167,64.5 722.833,64.5 753.5,64.5C 753.5,69.8333 753.5,75.1667 753.5,80.5 Z"/></g>
<g><path style="opacity:0.954" fill="#060504" d="M -0.5,360.5 C 22.5024,360.333 45.5024,360.5 68.5,361C 69.6769,384.452 69.3436,407.952 67.5,431.5C 44.8787,432.489 22.212,432.823 -0.5,432.5C -0.5,408.5 -0.5,384.5 -0.5,360.5 Z"/></g>
</svg>
